<?xml version="1.0" encoding="UTF-8"?>
<svg width="752pt" height="752pt" version="1.1" viewBox="0 0 752 752" xmlns="http://www.w3.org/2000/svg">
 <path d="m207.46 593.29c4.1797 3.4805 9.75 5.5703 14.625 5.5703 2.0898 0 3.4805 0 5.5703-0.69531 18.109-4.1797 34.82-16.02 50.145-34.82 2.0898-2.0898 4.875-3.4805 7.6602-3.4805h115.61c17.41 0 34.125-2.7852 50.84-8.3555 77.309-27.863 119.09-110.74 94.719-189.44-11.145-34.82-42.484-115.61-75.215-170.63-19.5-33.43-60.59-47.359-94.715-32.039-12.535 5.5703-20.195 13.23-23.68 22.984-3.4805 10.445-2.0898 22.984 5.5703 38.305 6.9648 11.145 16.02 17.41 24.375 18.109 6.2695 0.69531 11.84-2.7852 16.715-8.3555 2.7852-3.4805 7.6602-4.875 11.84-3.4805 3.4805 1.3945 6.9648 2.7852 10.445 5.5703 2.7852 2.0898 4.1797 4.875 4.875 8.3555l17.414 149.04c-29.25-19.5-66.16-22.984-106.55-10.445-3.4805 0.69531-6.9648 0.69531-9.75-0.69531-34.125-19.5-71.734-21.59-113.52-6.2695-9.75 3.4805-16.02 12.535-16.02 22.984v179.68c0 6.9609 2.7852 13.926 9.0508 18.105z"/>
</svg>
